<?xml version="1.0" standalone="no"?>
<!DOCTYPE svg PUBLIC "-//W3C//DTD SVG 20010904//EN"
 "http://www.w3.org/TR/2001/REC-SVG-20010904/DTD/svg10.dtd">
<svg version="1.0" xmlns="http://www.w3.org/2000/svg"
 width="1126.000000pt" height="816.000000pt" viewBox="0 0 1126.000000 816.000000"
 preserveAspectRatio="xMidYMid meet">
<metadata>
Created by potrace 1.15, written by Peter Selinger 2001-2017
</metadata>
<g transform="translate(0.000000,816.000000) scale(0.100000,-0.100000)"
fill="#000000" stroke="none">
<path d="M0 8151 c0 -16 139 -418 179 -519 22 -53 85 -200 141 -327 155 -351
213 -503 281 -735 46 -160 127 -291 237 -383 36 -30 120 -79 227 -132 137 -67
180 -93 222 -135 48 -48 113 -155 113 -186 0 -9 -38 0 -120 28 -97 32 -123 38
-135 28 -8 -7 -15 -18 -15 -24 0 -17 254 -352 348 -459 184 -209 422 -371 624
-424 62 -16 66 -19 56 -38 -19 -36 -51 -65 -74 -65 -12 0 -41 9 -65 20 -46 20
-114 27 -123 11 -3 -5 45 -75 108 -156 62 -80 135 -186 162 -233 87 -156 146
-201 415 -316 111 -48 218 -117 299 -193 36 -34 128 -147 205 -252 77 -105
147 -190 155 -191 9 0 290 -95 625 -210 695 -239 698 -241 692 -247 -3 -2
-299 97 -658 221 -359 124 -654 224 -655 223 -10 -10 362 -472 433 -537 102
-95 174 -122 698 -260 148 -39 288 -79 310 -89 78 -35 78 -36 124 -351 49
-342 61 -467 61 -622 0 -125 -21 -308 -45 -398 -28 -103 -17 -157 42 -211 15
-15 194 -135 396 -268 l368 -242 222 152 c421 287 534 371 559 414 31 53 29
150 -6 348 -30 172 -31 214 -11 373 29 216 115 706 130 735 9 16 29 35 45 44
16 8 143 44 282 81 371 96 625 171 682 202 38 21 77 60 169 172 152 186 359
451 355 456 -2 2 -307 -106 -678 -240 l-674 -243 -58 -118 c-66 -132 -87 -142
-68 -34 17 92 34 114 115 154 71 34 1340 495 1366 495 15 1 59 58 222 290 60
85 137 183 170 217 61 62 150 117 232 143 177 56 364 208 512 415 39 55 105
141 147 190 42 50 76 93 76 96 0 6 -60 -6 -235 -46 -44 -10 -62 -10 -67 -2 -4
6 -5 14 -2 18 2 4 80 51 172 105 393 228 469 300 782 743 78 110 80 115 63
132 -17 17 -22 16 -132 -31 -63 -28 -116 -48 -119 -46 -2 3 13 37 34 78 50 95
154 199 254 254 41 23 135 74 208 114 148 80 194 115 221 169 18 36 246 637
408 1076 135 366 253 705 253 727 0 36 -35 20 -496 -227 -446 -239 -586 -318
-949 -535 -154 -92 -381 -223 -505 -292 -449 -250 -1396 -765 -1436 -780 -22
-9 -193 -46 -380 -83 -604 -118 -736 -146 -843 -181 -133 -43 -246 -100 -335
-167 -85 -64 -114 -83 -145 -92 l-24 -7 6 341 c8 395 3 442 -65 581 -34 69
-60 104 -142 188 -56 57 -119 113 -140 124 -61 31 -116 21 -326 -60 -296 -113
-481 -161 -630 -163 -125 -1 -164 -32 -183 -142 -20 -119 21 -300 83 -367 37
-39 72 -39 135 1 186 118 365 52 365 -133 0 -69 -41 -235 -76 -306 -52 -106
-107 -104 -264 8 -163 116 -277 169 -450 210 -359 85 -694 175 -877 236 -164
55 -281 110 -488 231 -282 164 -533 304 -1215 676 -338 184 -875 477 -1193
651 -318 174 -597 321 -620 326 -53 12 -67 12 -67 1z"/>
<path d="M5505 374 c-37 -19 -162 -92 -278 -161 -116 -69 -228 -133 -249 -141
-41 -16 -45 -27 -24 -55 12 -15 32 -17 169 -17 188 0 219 8 332 90 104 74 140
92 186 92 46 -1 80 -18 184 -91 119 -83 147 -90 358 -91 l179 0 -30 38 c-31
38 -284 192 -517 314 -102 53 -115 58 -177 58 -57 0 -76 -5 -133 -36z"/>
</g>
</svg>
