<?xml version="1.0" standalone="no"?>
<!DOCTYPE svg PUBLIC "-//W3C//DTD SVG 20010904//EN"
 "http://www.w3.org/TR/2001/REC-SVG-20010904/DTD/svg10.dtd">
<svg version="1.0" xmlns="http://www.w3.org/2000/svg"
 width="3750.000000pt" height="833.000000pt" viewBox="0 0 3750.000000 833.000000"
 preserveAspectRatio="xMidYMid meet">
<metadata>
Created by potrace 1.15, written by Peter Selinger 2001-2017
</metadata>
<g transform="translate(0.000000,833.000000) scale(0.100000,-0.100000)"
fill="#000000" stroke="none">
<path d="M31360 5395 l1155 -1155 507 507 c280 280 508 512 508 518 0 6 -287
297 -638 648 l-637 637 -1025 0 -1025 0 1155 -1155z"/>
<path d="M32667 4092 c-1351 -1351 -2457 -2460 -2457 -2465 0 -4 458 -7 1018
-7 l1017 0 2465 2465 2465 2465 -1025 0 -1025 0 -2458 -2458z"/>
<path d="M370 5235 l0 -505 625 0 625 0 0 -1065 0 -1065 570 0 570 0 0 1065 0
1065 625 0 625 0 0 505 0 505 -1820 0 -1820 0 0 -505z"/>
<path d="M4480 4170 l0 -1570 575 0 575 0 0 335 0 335 695 0 c766 0 742 2 764
-61 7 -21 11 -135 11 -320 l0 -289 631 0 631 0 -5 423 c-5 469 -11 521 -77
680 l-32 77 32 77 c62 148 72 222 77 576 6 355 -3 487 -42 622 -105 361 -380
567 -880 658 -119 21 -132 21 -1537 25 l-1418 3 0 -1571z m2556 545 c52 -22
64 -60 64 -208 0 -68 -5 -138 -11 -156 -22 -63 2 -61 -764 -61 l-695 0 0 220
0 220 685 0 c579 0 691 -2 721 -15z"/>
<path d="M10517 5733 c-3 -5 -404 -696 -892 -1538 -488 -841 -896 -1545 -907
-1562 l-20 -33 691 0 691 0 112 225 113 225 847 0 846 0 115 -222 114 -223
688 -3 c626 -2 687 -1 681 14 -3 9 -412 715 -908 1570 l-902 1554 -632 0
c-348 0 -635 -3 -637 -7z m834 -1515 l79 -158 -276 0 c-152 0 -274 3 -272 8 2
4 63 126 137 271 l133 265 60 -115 c33 -63 95 -185 139 -271z"/>
<path d="M14831 5729 c-562 -61 -911 -300 -1011 -692 -37 -148 -42 -262 -38
-942 4 -610 6 -656 25 -740 103 -452 456 -692 1096 -746 87 -7 397 -9 907 -6
812 4 844 6 1047 52 157 36 326 106 433 178 128 87 244 232 299 375 48 127 61
209 68 430 l6 202 -632 0 -631 0 0 -65 c0 -74 -18 -128 -48 -144 -14 -8 -214
-11 -634 -11 -682 0 -648 -4 -668 68 -6 23 -10 210 -10 492 0 413 2 458 18
490 11 24 28 39 52 47 25 9 193 12 615 12 533 1 583 0 615 -17 47 -23 60 -53
60 -139 l0 -73 630 0 630 0 0 148 c0 255 -32 421 -110 572 -137 261 -393 417
-815 492 -116 21 -148 22 -970 24 -467 1 -888 -2 -934 -7z"/>
<path d="M18130 4170 l0 -1570 570 0 570 0 0 385 c0 212 3 385 6 385 3 0 257
-173 565 -385 l558 -385 803 0 c791 0 802 0 783 19 -11 11 -468 362 -1015 781
-547 418 -996 765 -998 769 -2 5 445 352 993 771 547 419 1006 771 1018 781
21 18 2 18 -783 19 l-805 0 -560 -386 -560 -386 -3 386 -2 386 -570 0 -570 0
0 -1570z"/>
<path d="M22410 4170 l0 -1570 1825 0 1825 0 0 510 0 510 -1250 0 -1250 0 0
105 0 105 1020 0 1020 0 0 340 0 340 -1020 0 -1020 0 0 110 0 110 1250 0 1250
0 0 505 0 505 -1825 0 -1825 0 0 -1570z"/>
<path d="M26520 4170 l0 -1570 575 0 575 0 0 335 0 335 694 0 c418 0 705 -4
720 -10 52 -20 56 -43 56 -365 l0 -295 631 0 631 0 -5 433 c-4 348 -7 445 -20
497 -19 76 -47 160 -73 213 -17 36 -17 38 0 75 26 53 54 136 73 212 20 84 31
705 14 844 -15 125 -43 231 -86 318 -137 280 -394 441 -830 521 -119 21 -132
21 -1537 25 l-1418 3 0 -1571z m2587 527 c28 -27 28 -29 31 -176 4 -165 -6
-203 -54 -221 -15 -6 -302 -10 -720 -10 l-694 0 0 220 0 221 705 -3 705 -3 27
-28z"/>
<path d="M34365 3410 l-510 -510 640 -640 640 -640 1017 0 c560 0 1018 3 1018
8 0 8 -2282 2292 -2290 2292 -3 0 -235 -230 -515 -510z"/>
</g>
</svg>
